<svg width="310" height="156" viewBox="0 0 310 156" fill="none" xmlns="http://www.w3.org/2000/svg">
<rect x="12.4336" y="31.0835" width="128.064" height="31.0835" rx="15.5417" fill="white"/>
<rect x="88.5801" y="31.0835" width="51.9177" height="31.0835" rx="15.5417" fill="#C6F1FF"/>
<rect x="12.4336" y="31.0835" width="51.9177" height="31.0835" rx="15.5417" fill="#C6F1FF"/>
<rect x="221.936" y="93.2505" width="128.064" height="31.0835" rx="15.5417" fill="white"/>
<rect x="298.082" y="93.2505" width="51.9177" height="31.0835" rx="15.5417" fill="#C6F1FF"/>
<rect x="221.936" y="93.2505" width="51.9177" height="31.0835" rx="15.5417" fill="#C6F1FF"/>
<rect y="93.2505" width="228.774" height="31.0835" rx="15.5417" fill="white"/>
<rect x="136.027" y="93.2505" width="92.7462" height="31.0835" rx="15.5417" fill="#C6F1FF"/>
<rect y="93.2505" width="92.7462" height="31.0835" rx="15.5417" fill="#C6F1FF"/>
<rect x="28.5977" width="270.426" height="31.0835" rx="15.5417" fill="white"/>
<rect x="19.8945" y="62.167" width="143.606" height="31.0835" rx="15.5417" fill="white"/>
<rect x="244.938" y="62.167" width="81.4388" height="31.0835" rx="15.5417" fill="white"/>
<rect x="55.9512" y="124.334" width="270.426" height="31.0835" rx="15.5417" fill="white"/>
</svg>
