<svg width="389" height="200" viewBox="0 0 389 200" fill="none" xmlns="http://www.w3.org/2000/svg">
<path fill-rule="evenodd" clip-rule="evenodd" d="M243.151 56C243.151 47.1709 250.302 40.0121 259.128 40H173.022C181.859 40 189.022 47.1635 189.022 56V64C189.022 72.8323 181.865 79.9931 173.035 80L259.151 80C250.314 80 243.151 72.8366 243.151 64V56Z" fill="white"/>
<path fill-rule="evenodd" clip-rule="evenodd" d="M280.654 136C280.654 127.169 287.809 120.009 296.638 120H242.433C251.269 120 258.433 127.163 258.433 136V144C258.433 152.837 251.269 160 242.433 160H312.271C312.271 160 312.271 160 312.271 160C312.271 160 312.271 160 312.271 160H296.654C287.818 160 280.654 152.837 280.654 144V136ZM213.549 152.946C211.824 150.392 210.816 147.314 210.816 144V136C210.816 131.902 212.356 128.165 214.89 125.334C212.356 128.165 210.816 131.902 210.816 136V144C210.816 147.314 211.824 150.392 213.549 152.946ZM226.816 120H226.816C224.607 120 222.502 120.448 220.588 121.257C222.502 120.448 224.607 120 226.816 120ZM328.271 136C328.271 130.822 325.811 126.219 321.997 123.295C325.811 126.219 328.271 130.822 328.271 136V144C328.271 148.004 326.8 151.665 324.369 154.471C326.8 151.665 328.271 148.004 328.271 144V136Z" fill="white"/>
<rect x="60.9861" width="327.518" height="40" rx="16" fill="white"/>
<rect x="149.077" y="80" width="187.476" height="40" rx="16" fill="white"/>
<rect y="160" width="376.457" height="40" rx="16" fill="white"/>
</svg>
